<?xml version="1.0" encoding="utf-8"?>
<!-- Generator: Adobe Illustrator 24.1.1, SVG Export Plug-In . SVG Version: 6.00 Build 0)  -->
<svg version="1.1" id="Layer_1" xmlns="http://www.w3.org/2000/svg" xmlns:xlink="http://www.w3.org/1999/xlink" x="0px" y="0px"
	 viewBox="0 0 1920 1080" style="enable-background:new 0 0 1920 1080;" xml:space="preserve">
<style type="text/css">
	.st0{fill:#2E2E2E;stroke:#E31E26;stroke-width:3;stroke-miterlimit:10;}
	.st1{fill:none;stroke:#000000;stroke-miterlimit:10;}
	.st2{fill:none;stroke:#000000;stroke-width:2;stroke-miterlimit:10;}
	.st3{fill:#111111;}
	.st4{fill:#E42127;}
</style>
<path class="st0" d="M942.31,444.74c-4.02,2.41-9.97,6.61-15.15,13.46c-2.55,3.38-5.61,6.57-12.69,30.33
	c-1.7,5.72-4.63,12.98-7.68,23.06c-2.83,9.34-5.01,17.66-6.67,24.57c-1.67,9.38-3.35,18.75-5.02,28.13
	c-0.45,3.52-0.79,9.67,1.35,16.86c1.93,6.48,5.06,11.11,7.19,13.79c1.47,1.85,3.89,4.43,7.52,6.6c5.31,3.18,10.4,3.82,13.08,3.95
	c4.6-0.51,10.14-1.49,16.24-3.38c5.59-1.73,10.34-3.81,14.2-5.79c8.08-7.71,16.58-15.62,25.82-23.32c4.02-3.35,8.04-6.7,12.06-10.05
	c23.89-0.89,47.78-1.79,71.67-2.68c6.14,11.27,12.15,19.87,16.74,25.86c5.49,7.16,8.96,10.63,10.72,12.32
	c5.92,5.67,11.59,9.55,15.74,12.06c2.63,1.59,6.2,3.55,11.01,4.58c2.18,0.46,5.5,0.91,9.63,0.45c2.46-0.51,5.47-1.37,8.72-2.85
	c4.67-2.13,8.15-4.76,10.49-6.86c1.7-2.43,3.52-5.39,5.2-8.88c2-4.13,3.3-7.97,4.17-11.22c2.82-10.5,4.59-15.66,4.72-16.37
	c0.85-4.59,1.61-11.48,0.63-20.19c-2.23-12.82-4.46-25.64-6.69-38.46c-3.7-9.39-7.4-18.78-11.1-28.17
	c-1.89-6.12-5.27-14.69-11.51-23.74c-4.56-6.62-9.5-11.55-10.47-12.5c-2.54-2.51-4.88-4.52-6.76-6.02
	c-4.23-0.99-9.62-1.85-15.88-1.88c-4.52-0.02-8.54,0.4-11.93,0.97c-2.68,1.14-6.68,2.88-11.51,5.08
	c-6.67,3.05-10.72,5.21-12.61,5.97c-4.38,1.76-14.43,8.14-28.13,7.37c-11.94-0.67-23.89-1.34-35.83-2.01
	c-3.34-2.74-7.46-5.71-12.4-8.51c-3.56-2.02-6.95-3.61-10.04-4.88c-4.16-1.15-10.73-2.42-18.76-1.7
	C951.5,441.3,946,443.16,942.31,444.74z"/>
<circle class="st1" cx="961.15" cy="502.76" r="28.89"/>
<circle class="st1" cx="1098.54" cy="480.66" r="9.42"/>
<circle class="st1" cx="1098.54" cy="518.33" r="9.42"/>
<circle class="st1" cx="1079.7" cy="499.49" r="9.42"/>
<circle class="st1" cx="1117.38" cy="499.49" r="9.42"/>
<path class="st1" d="M1118.47,617.21"/>
<polyline class="st2" points="1008.95,532.15 1008.95,527.79 1016.32,527.79 1021.01,527.79 1021.01,540.52 "/>
<polyline class="st2" points="1039.26,532.15 1039.26,527.79 1046.63,527.79 1051.32,527.79 1051.32,540.52 "/>
<circle class="st3" cx="961.15" cy="501.5" r="20.22"/>
<circle class="st3" cx="1098.54" cy="480.53" r="3.14"/>
<circle class="st3" cx="1079.7" cy="499.49" r="3.14"/>
<circle class="st3" cx="1117.38" cy="499.49" r="3.14"/>
<circle class="st3" cx="1098.54" cy="518.33" r="3.14"/>
<g>
	<path class="st4" d="M715.59,523.55c1.41,0.87,3.47,1.59,5.64,1.59c3.22,0,5.1-1.7,5.1-4.16c0-2.28-1.3-3.58-4.6-4.85
		c-3.98-1.41-6.44-3.47-6.44-6.91c0-3.8,3.15-6.62,7.89-6.62c2.5,0,4.31,0.58,5.39,1.19l-0.87,2.57c-0.8-0.43-2.43-1.16-4.63-1.16
		c-3.33,0-4.6,1.99-4.6,3.65c0,2.28,1.48,3.4,4.85,4.7c4.12,1.59,6.22,3.58,6.22,7.16c0,3.76-2.79,7.02-8.54,7.02
		c-2.35,0-4.92-0.69-6.22-1.56L715.59,523.55z"/>
	<path class="st4" d="M733.86,503.29c1.52-0.25,3.51-0.47,6.04-0.47c3.11,0,5.39,0.72,6.84,2.03c1.34,1.16,2.13,2.93,2.13,5.1
		c0,2.21-0.65,3.94-1.88,5.21c-1.66,1.77-4.38,2.68-7.45,2.68c-0.94,0-1.81-0.04-2.53-0.22v9.77h-3.15V503.29z M737.01,515.05
		c0.69,0.18,1.56,0.25,2.61,0.25c3.8,0,6.12-1.85,6.12-5.21c0-3.22-2.28-4.78-5.75-4.78c-1.37,0-2.42,0.11-2.97,0.25V515.05z"/>
	<path class="st4" d="M773.94,514.94c0,8.39-5.1,12.84-11.33,12.84c-6.44,0-10.96-4.99-10.96-12.37c0-7.74,4.81-12.81,11.33-12.81
		C769.64,502.6,773.94,507.7,773.94,514.94z M755.02,515.34c0,5.21,2.82,9.88,7.78,9.88c4.99,0,7.82-4.6,7.82-10.13
		c0-4.85-2.53-9.91-7.78-9.91C757.63,505.17,755.02,509.98,755.02,515.34z"/>
	<path class="st4" d="M781.75,505.68h-7.42V503h18.06v2.68h-7.45v21.71h-3.18V505.68z"/>
	<path class="st4" d="M795.09,503h3.15v21.75h10.42v2.64h-13.57V503z"/>
	<path class="st4" d="M815.31,503v24.39h-3.15V503H815.31z"/>
	<path class="st4" d="M839.37,526.3c-1.41,0.51-4.2,1.34-7.49,1.34c-3.69,0-6.73-0.94-9.12-3.22c-2.1-2.03-3.4-5.28-3.4-9.08
		c0.04-7.27,5.03-12.59,13.21-12.59c2.82,0,5.03,0.62,6.08,1.12l-0.76,2.57c-1.3-0.58-2.93-1.05-5.39-1.05
		c-5.93,0-9.81,3.69-9.81,9.81c0,6.19,3.73,9.84,9.41,9.84c2.06,0,3.47-0.29,4.2-0.65v-7.27h-4.96v-2.53h8.03V526.3z"/>
	<path class="st4" d="M847.32,503v10.2h11.8V503h3.18v24.39h-3.18v-11.43h-11.8v11.43h-3.15V503H847.32z"/>
	<path class="st4" d="M872.39,505.68h-7.42V503h18.06v2.68h-7.45v21.71h-3.18V505.68z"/>
</g>
<g>
	<path class="st4" d="M1194.78,520.4c-1.41,0.51-4.2,1.34-7.49,1.34c-3.69,0-6.73-0.94-9.12-3.22c-2.1-2.03-3.4-5.28-3.4-9.08
		c0.04-7.27,5.03-12.59,13.21-12.59c2.82,0,5.03,0.62,6.08,1.12l-0.76,2.57c-1.3-0.58-2.93-1.05-5.39-1.05
		c-5.93,0-9.81,3.69-9.81,9.81c0,6.19,3.73,9.84,9.41,9.84c2.06,0,3.47-0.29,4.2-0.65v-7.27h-4.96v-2.53h8.03V520.4z"/>
	<path class="st4" d="M1203.53,513.82l-2.53,7.67h-3.26l8.29-24.39h3.8l8.32,24.39h-3.37l-2.6-7.67H1203.53z M1211.52,511.36
		l-2.39-7.02c-0.54-1.59-0.91-3.04-1.27-4.45h-0.07c-0.36,1.45-0.76,2.93-1.23,4.41l-2.39,7.06H1211.52z"/>
	<path class="st4" d="M1242.13,510.78c-0.18-3.4-0.4-7.49-0.36-10.53h-0.11c-0.83,2.86-1.85,5.9-3.08,9.26l-4.31,11.83h-2.39
		l-3.94-11.61c-1.16-3.44-2.13-6.59-2.82-9.48h-0.07c-0.07,3.04-0.25,7.13-0.47,10.78l-0.65,10.46h-3l1.7-24.39h4.02l4.16,11.8
		c1.01,3,1.84,5.68,2.46,8.21h0.11c0.61-2.46,1.48-5.14,2.57-8.21l4.34-11.8h4.02l1.52,24.39h-3.08L1242.13,510.78z"/>
	<path class="st4" d="M1253.8,497.1v24.39h-3.15V497.1H1253.8z"/>
	<path class="st4" d="M1259.3,521.49V497.1h3.44l7.82,12.34c1.81,2.86,3.22,5.43,4.38,7.92l0.07-0.04
		c-0.29-3.26-0.36-6.22-0.36-10.02v-10.2h2.97v24.39h-3.18l-7.74-12.38c-1.7-2.71-3.33-5.5-4.56-8.14l-0.11,0.04
		c0.18,3.08,0.25,6.01,0.25,10.06v10.42H1259.3z"/>
	<path class="st4" d="M1301.66,520.4c-1.41,0.51-4.2,1.34-7.49,1.34c-3.69,0-6.73-0.94-9.12-3.22c-2.1-2.03-3.4-5.28-3.4-9.08
		c0.04-7.27,5.03-12.59,13.21-12.59c2.82,0,5.03,0.62,6.08,1.12l-0.76,2.57c-1.3-0.58-2.93-1.05-5.39-1.05
		c-5.93,0-9.81,3.69-9.81,9.81c0,6.19,3.73,9.84,9.41,9.84c2.06,0,3.47-0.29,4.2-0.65v-7.27h-4.96v-2.53h8.03V520.4z"/>
</g>
</svg>
